<svg width="22" height="18" viewBox="0 0 22 18" fill="none" xmlns="http://www.w3.org/2000/svg">
<path d="M11.5 1.5C11.5 1.5 12.1369 1.59099 14.773 4.22703C17.409 6.86307 17.409 11.1369 14.773 13.773C13.839 14.7069 12.6995 15.31 11.5 15.5821M11.5 1.5L16 1.5M11.5 1.5L11.5 6M8.5 16.4999C8.5 16.4999 7.86307 16.4089 5.22703 13.7728C2.59099 11.1368 2.59099 6.86292 5.22703 4.22688C6.16099 3.29293 7.30054 2.68987 8.5 2.41772M8.5 16.4999L4 16.5M8.5 16.4999L8.5 12" stroke="#9DB2CE" stroke-width="2" stroke-linecap="round" stroke-linejoin="round"/>
<path d="M1 12L20.5 6" stroke="#9DB2CE" stroke-width="2" stroke-linecap="round"/>
</svg>
