<svg width="40" height="41" viewBox="0 0 40 41" fill="none" xmlns="http://www.w3.org/2000/svg">
<rect y="0.0522461" width="40" height="40" rx="20" fill="#D9F9E7"/>
<path d="M14 14.0522H14.01M14 26.0522H14.01M13.2 18.0522H26.8C27.9201 18.0522 28.4802 18.0522 28.908 17.8343C29.2843 17.6425 29.5903 17.3366 29.782 16.9602C30 16.5324 30 15.9724 30 14.8522V13.2522C30 12.1321 30 11.5721 29.782 11.1443C29.5903 10.7679 29.2843 10.462 28.908 10.2702C28.4802 10.0522 27.9201 10.0522 26.8 10.0522H13.2C12.0799 10.0522 11.5198 10.0522 11.092 10.2702C10.7157 10.462 10.4097 10.7679 10.218 11.1443C10 11.5721 10 12.1321 10 13.2522V14.8522C10 15.9724 10 16.5324 10.218 16.9602C10.4097 17.3366 10.7157 17.6425 11.092 17.8343C11.5198 18.0522 12.0799 18.0522 13.2 18.0522ZM13.2 30.0522H26.8C27.9201 30.0522 28.4802 30.0522 28.908 29.8343C29.2843 29.6425 29.5903 29.3366 29.782 28.9602C30 28.5324 30 27.9724 30 26.8522V25.2522C30 24.1321 30 23.5721 29.782 23.1443C29.5903 22.7679 29.2843 22.462 28.908 22.2702C28.4802 22.0522 27.9201 22.0522 26.8 22.0522H13.2C12.0799 22.0522 11.5198 22.0522 11.092 22.2702C10.7157 22.462 10.4097 22.7679 10.218 23.1443C10 23.5721 10 24.1321 10 25.2522V26.8522C10 27.9724 10 28.5324 10.218 28.9602C10.4097 29.3366 10.7157 29.6425 11.092 29.8343C11.5198 30.0522 12.0799 30.0522 13.2 30.0522Z" stroke="#43946D" stroke-width="2" stroke-linecap="round" stroke-linejoin="round"/>
</svg>
