<svg width="60" height="60" viewBox="0 0 60 60" fill="none" xmlns="http://www.w3.org/2000/svg">
<rect width="60" height="60" rx="12" fill="#ECEAFD"/>
<path d="M30 31C30.5523 31 31 30.5523 31 30C31 29.4477 30.5523 29 30 29C29.4477 29 29 29.4477 29 30C29 30.5523 29.4477 31 30 31Z" stroke="#7443E4" stroke-width="2" stroke-linecap="round" stroke-linejoin="round"/>
<path d="M37 31C37.5523 31 38 30.5523 38 30C38 29.4477 37.5523 29 37 29C36.4477 29 36 29.4477 36 30C36 30.5523 36.4477 31 37 31Z" stroke="#7443E4" stroke-width="2" stroke-linecap="round" stroke-linejoin="round"/>
<path d="M23 31C23.5523 31 24 30.5523 24 30C24 29.4477 23.5523 29 23 29C22.4477 29 22 29.4477 22 30C22 30.5523 22.4477 31 23 31Z" stroke="#7443E4" stroke-width="2" stroke-linecap="round" stroke-linejoin="round"/>
</svg>
