<svg width="24" height="24" viewBox="0 0 24 24" fill="none" xmlns="http://www.w3.org/2000/svg">
<path d="M19.6039 13.957C19.8658 13.957 20.1171 13.853 20.3024 13.6677C20.4876 13.4824 20.5917 13.2312 20.5917 12.9692V9.76051C20.6956 9.667 20.7946 9.56808 20.8881 9.46414C21.2619 8.98841 21.5216 8.43317 21.6469 7.84123C21.7723 7.24929 21.7601 6.63647 21.6112 6.05001L20.5611 1.86335C20.5078 1.64971 20.3847 1.45999 20.2112 1.32432C20.0378 1.18865 19.824 1.11482 19.6039 1.11454H3.79824C3.57802 1.11454 3.36412 1.18814 3.19051 1.32363C3.0169 1.45912 2.89354 1.64874 2.84003 1.86237L1.79291 6.04803C1.64415 6.63457 1.63207 7.24744 1.75762 7.83938C1.88316 8.43132 2.14296 8.98652 2.517 9.46216C2.61025 9.56634 2.70918 9.66528 2.81336 9.75853V21.8601C2.81336 22.1221 2.91743 22.3734 3.10269 22.5587C3.28795 22.7439 3.53921 22.848 3.80121 22.848H14.8108C15.0728 22.848 15.3241 22.7439 15.5093 22.5587C15.6946 22.3734 15.7987 22.1221 15.7987 21.8601C15.7987 21.5981 15.6946 21.3468 15.5093 21.1616C15.3241 20.9763 15.0728 20.8722 14.8108 20.8722H4.78511V10.8946C5.48605 11.0553 6.21774 11.0194 6.8996 10.7909C7.58145 10.5624 8.18701 10.1501 8.64958 9.59948C8.67921 9.63406 8.69996 9.67456 8.73058 9.70815C9.10377 10.1128 9.55662 10.4359 10.0607 10.657C10.5647 10.8782 11.1091 10.9927 11.6596 10.9934H11.7415C12.2918 10.993 12.836 10.8786 13.3399 10.6576C13.8438 10.4366 14.2965 10.1137 14.6695 9.70914C14.7011 9.67555 14.7209 9.63406 14.7505 9.60047C15.2134 10.1509 15.8192 10.563 16.5012 10.7913C17.1832 11.0196 17.915 11.0554 18.616 10.8946V12.9692C18.616 13.2312 18.7201 13.4824 18.9053 13.6677C19.0906 13.853 19.3419 13.957 19.6039 13.957ZM7.9808 3.22268L7.69235 6.68028L7.65185 7.17422C7.60874 7.67524 7.37997 8.14207 7.01043 8.48311C6.6409 8.82415 6.15726 9.01479 5.65441 9.01762C5.34978 9.0177 5.04914 8.94834 4.77533 8.81481C4.50151 8.68128 4.26174 8.48709 4.07423 8.247C3.88671 8.00691 3.75639 7.72723 3.69316 7.42922C3.62994 7.13121 3.63547 6.82271 3.70934 6.52716L4.56877 3.09031H7.99463L7.9808 3.22268ZM13.2164 8.37055C13.0294 8.5755 12.8016 8.73897 12.5476 8.85043C12.2935 8.96188 12.019 9.01883 11.7415 9.01762H11.6596C11.3827 9.01772 11.1088 8.96042 10.8552 8.84934C10.6015 8.73825 10.3737 8.5758 10.186 8.37224C9.99831 8.16867 9.85485 7.9284 9.76468 7.66661C9.67452 7.40481 9.6396 7.12716 9.66212 6.85119L9.97033 3.09031H13.4278L13.741 6.84427C13.7651 7.12121 13.7308 7.40013 13.6405 7.66302C13.5501 7.92591 13.4057 8.16694 13.2164 8.37055ZM17.7467 9.01762C17.2447 9.01494 16.7617 8.82517 16.3921 8.48537C16.0226 8.14558 15.793 7.68019 15.7483 7.18015L15.4035 3.09031H18.8314L19.6908 6.52716C19.7646 6.82263 19.7702 7.13104 19.707 7.42898C19.6438 7.72692 19.5136 8.00654 19.3262 8.24661C19.1388 8.48668 18.8991 8.68089 18.6255 8.81449C18.3518 8.94808 18.0512 9.01755 17.7467 9.01762ZM20.7705 17.5796L23.4051 17.9639L21.2101 19.7747L21.8957 22.848L19.4537 21.0915L17.0117 22.848L17.6973 19.7747L15.5023 17.9639L18.1369 17.5796L19.4537 14.9449L20.7705 17.5796Z" fill="white"/>
</svg>
