<svg width="61" height="61" viewBox="0 0 61 61" fill="none" xmlns="http://www.w3.org/2000/svg">
<rect x="0.25" y="0.0522461" width="60" height="60" rx="12" fill="#FCEED8"/>
<path d="M20.25 25.0522L28.4149 30.7677C29.0761 31.2305 29.4067 31.4619 29.7663 31.5516C30.0839 31.6307 30.4161 31.6307 30.7337 31.5516C31.0933 31.4619 31.4239 31.2305 32.0851 30.7677L40.25 25.0522M25.05 38.0522H35.45C37.1302 38.0522 37.9702 38.0522 38.612 37.7253C39.1765 37.4376 39.6354 36.9787 39.923 36.4142C40.25 35.7725 40.25 34.9324 40.25 33.2522V26.8522C40.25 25.1721 40.25 24.332 39.923 23.6903C39.6354 23.1258 39.1765 22.6668 38.612 22.3792C37.9702 22.0522 37.1302 22.0522 35.45 22.0522H25.05C23.3698 22.0522 22.5298 22.0522 21.888 22.3792C21.3235 22.6668 20.8646 23.1258 20.577 23.6903C20.25 24.332 20.25 25.1721 20.25 26.8522V33.2522C20.25 34.9324 20.25 35.7725 20.577 36.4142C20.8646 36.9787 21.3235 37.4376 21.888 37.7253C22.5298 38.0522 23.3698 38.0522 25.05 38.0522Z" stroke="#E48E61" stroke-width="2" stroke-linecap="round" stroke-linejoin="round"/>
</svg>
