<svg width="24" height="24" viewBox="0 0 24 24" fill="none" xmlns="http://www.w3.org/2000/svg">
<path d="M19.604 13.957C19.866 13.957 20.1172 13.8529 20.3025 13.6677C20.4877 13.4824 20.5918 13.2311 20.5918 12.9691V9.76047C20.6958 9.66697 20.7947 9.56804 20.8882 9.46411C21.262 8.98837 21.5217 8.43313 21.647 7.8412C21.7724 7.24926 21.7602 6.63644 21.6113 6.04998L20.5612 1.86332C20.5079 1.64967 20.3848 1.45995 20.2114 1.32429C20.0379 1.18862 19.8242 1.11478 19.604 1.1145H3.79836C3.57814 1.11451 3.36424 1.1881 3.19063 1.32359C3.01702 1.45908 2.89366 1.6487 2.84015 1.86233L1.79303 6.048C1.64427 6.63454 1.6322 7.2474 1.75774 7.83934C1.88328 8.43128 2.14309 8.98648 2.51712 9.46213C2.61037 9.56631 2.7093 9.66525 2.81348 9.7585V21.8601C2.81348 22.1221 2.91755 22.3734 3.10281 22.5586C3.28807 22.7439 3.53933 22.848 3.80133 22.848H14.8109C15.0729 22.848 15.3242 22.7439 15.5094 22.5586C15.6947 22.3734 15.7988 22.1221 15.7988 21.8601C15.7988 21.5981 15.6947 21.3468 15.5094 21.1615C15.3242 20.9763 15.0729 20.8722 14.8109 20.8722H4.78523V10.8946C5.48617 11.0553 6.21786 11.0194 6.89972 10.7909C7.58157 10.5624 8.18713 10.1501 8.6497 9.59945C8.67933 9.63402 8.70008 9.67453 8.7307 9.70811C9.10389 10.1128 9.55675 10.4358 10.0608 10.657C10.5649 10.8782 11.1092 10.9927 11.6597 10.9934H11.7417C12.2919 10.9929 12.8361 10.8786 13.34 10.6576C13.8439 10.4366 14.2966 10.1136 14.6697 9.7091C14.7013 9.67551 14.721 9.63402 14.7507 9.60044C15.2136 10.1509 15.8194 10.5629 16.5014 10.7913C17.1834 11.0196 17.9151 11.0553 18.6161 10.8946V12.9691C18.6161 13.2311 18.7202 13.4824 18.9055 13.6677C19.0907 13.8529 19.342 13.957 19.604 13.957ZM7.98092 3.22265L7.69247 6.68025L7.65197 7.17419C7.60886 7.67521 7.3801 8.14203 7.01056 8.48307C6.64102 8.82412 6.15738 9.01475 5.65454 9.01758C5.3499 9.01767 5.04926 8.94831 4.77545 8.81478C4.50164 8.68125 4.26186 8.48706 4.07435 8.24697C3.88684 8.00687 3.75651 7.7272 3.69329 7.42919C3.63006 7.13118 3.63559 6.82268 3.70946 6.52712L4.56889 3.09027H7.99475L7.98092 3.22265ZM13.2165 8.37052C13.0296 8.57547 12.8017 8.73894 12.5477 8.85039C12.2937 8.96184 12.0191 9.0188 11.7417 9.01758H11.6597C11.3828 9.01768 11.1089 8.96038 10.8553 8.8493C10.6017 8.73822 10.3738 8.57577 10.1861 8.3722C9.99843 8.16863 9.85497 7.92837 9.76481 7.66657C9.67464 7.40477 9.63972 7.12712 9.66225 6.85115L9.97045 3.09027H13.4279L13.7411 6.84424C13.7652 7.12118 13.7309 7.40009 13.6406 7.66298C13.5502 7.92588 13.4058 8.16691 13.2165 8.37052ZM17.7468 9.01758C17.2448 9.01491 16.7618 8.82513 16.3923 8.48534C16.0227 8.14555 15.7931 7.68016 15.7484 7.18012L15.4036 3.09027H18.8315L19.6909 6.52712C19.7648 6.8226 19.7703 7.13101 19.7071 7.42895C19.644 7.72688 19.5137 8.00651 19.3263 8.24658C19.1389 8.48665 18.8993 8.68086 18.6256 8.81445C18.3519 8.94805 18.0514 9.01752 17.7468 9.01758ZM20.7706 17.5796L23.4052 17.9639L21.2102 19.7747L21.8958 22.848L19.4538 21.0915L17.0119 22.848L17.6974 19.7747L15.5024 17.9639L18.137 17.5796L19.4538 14.9449L20.7706 17.5796Z" fill="white"/>
</svg>
