<svg width="60" height="61" viewBox="0 0 60 61" fill="none" xmlns="http://www.w3.org/2000/svg">
<rect y="0.0522461" width="60" height="60" rx="12" fill="#ECEAFD"/>
<path d="M30 31.0522C30.5523 31.0522 31 30.6045 31 30.0522C31 29.5 30.5523 29.0522 30 29.0522C29.4477 29.0522 29 29.5 29 30.0522C29 30.6045 29.4477 31.0522 30 31.0522Z" stroke="#7443E4" stroke-width="2" stroke-linecap="round" stroke-linejoin="round"/>
<path d="M37 31.0522C37.5523 31.0522 38 30.6045 38 30.0522C38 29.5 37.5523 29.0522 37 29.0522C36.4477 29.0522 36 29.5 36 30.0522C36 30.6045 36.4477 31.0522 37 31.0522Z" stroke="#7443E4" stroke-width="2" stroke-linecap="round" stroke-linejoin="round"/>
<path d="M23 31.0522C23.5523 31.0522 24 30.6045 24 30.0522C24 29.5 23.5523 29.0522 23 29.0522C22.4477 29.0522 22 29.5 22 30.0522C22 30.6045 22.4477 31.0522 23 31.0522Z" stroke="#7443E4" stroke-width="2" stroke-linecap="round" stroke-linejoin="round"/>
</svg>
