<svg width="61" height="61" viewBox="0 0 61 61" fill="none" xmlns="http://www.w3.org/2000/svg">
<rect x="0.5" y="0.0522461" width="60" height="60" rx="12" fill="#ECEAFD"/>
<path d="M29.802 39.6672C30.0234 39.7963 30.1341 39.8609 30.2903 39.8944C30.4116 39.9204 30.5884 39.9204 30.7097 39.8944C30.8659 39.8609 30.9766 39.7963 31.198 39.6672C33.146 38.5307 38.5 34.9608 38.5 30.0523V26.2523C38.5 25.1784 38.5 24.6415 38.3345 24.2603C38.1662 23.8729 37.9986 23.6668 37.6536 23.4232C37.3141 23.1835 36.6486 23.0451 35.3177 22.7683C33.8508 22.4633 32.7243 21.9124 31.6944 21.1156C31.2005 20.7336 30.9536 20.5426 30.7603 20.4905C30.5564 20.4355 30.4436 20.4355 30.2397 20.4905C30.0464 20.5426 29.7995 20.7336 29.3056 21.1156C28.2757 21.9124 27.1492 22.4633 25.6823 22.7683C24.3514 23.0451 23.6859 23.1835 23.3464 23.4232C23.0014 23.6668 22.8338 23.8729 22.6655 24.2603C22.5 24.6415 22.5 25.1784 22.5 26.2523V30.0523C22.5 34.9608 27.854 38.5307 29.802 39.6672Z" stroke="#7443E4" stroke-width="2" stroke-linecap="round" stroke-linejoin="round"/>
</svg>
