<svg width="61" height="61" viewBox="0 0 61 61" fill="none" xmlns="http://www.w3.org/2000/svg">
<rect x="0.75" y="0.0522461" width="60" height="60" rx="12" fill="#D9F9E7"/>
<path d="M24.75 24.0522H24.76M24.75 36.0522H24.76M23.95 28.0522H37.55C38.6701 28.0522 39.2302 28.0522 39.658 27.8343C40.0343 27.6425 40.3403 27.3366 40.532 26.9602C40.75 26.5324 40.75 25.9724 40.75 24.8522V23.2522C40.75 22.1321 40.75 21.5721 40.532 21.1443C40.3403 20.7679 40.0343 20.462 39.658 20.2702C39.2302 20.0522 38.6701 20.0522 37.55 20.0522H23.95C22.8299 20.0522 22.2698 20.0522 21.842 20.2702C21.4657 20.462 21.1597 20.7679 20.968 21.1443C20.75 21.5721 20.75 22.1321 20.75 23.2522V24.8522C20.75 25.9724 20.75 26.5324 20.968 26.9602C21.1597 27.3366 21.4657 27.6425 21.842 27.8343C22.2698 28.0522 22.8299 28.0522 23.95 28.0522ZM23.95 40.0522H37.55C38.6701 40.0522 39.2302 40.0522 39.658 39.8343C40.0343 39.6425 40.3403 39.3366 40.532 38.9602C40.75 38.5324 40.75 37.9724 40.75 36.8522V35.2522C40.75 34.1321 40.75 33.5721 40.532 33.1443C40.3403 32.7679 40.0343 32.462 39.658 32.2702C39.2302 32.0522 38.6701 32.0522 37.55 32.0522H23.95C22.8299 32.0522 22.2698 32.0522 21.842 32.2702C21.4657 32.462 21.1597 32.7679 20.968 33.1443C20.75 33.5721 20.75 34.1321 20.75 35.2522V36.8522C20.75 37.9724 20.75 38.5324 20.968 38.9602C21.1597 39.3366 21.4657 39.6425 21.842 39.8343C22.2698 40.0522 22.8299 40.0522 23.95 40.0522Z" stroke="#43946D" stroke-width="2" stroke-linecap="round" stroke-linejoin="round"/>
</svg>
