<svg width="40" height="41" viewBox="0 0 40 41" fill="none" xmlns="http://www.w3.org/2000/svg">
<rect y="0.0522461" width="40" height="40" rx="20" fill="#DEEAFC"/>
<path d="M10 20.0522H30M10 20.0522C10 25.5751 14.4772 30.0522 20 30.0522M10 20.0522C10 14.5294 14.4772 10.0522 20 10.0522M30 20.0522C30 25.5751 25.5228 30.0522 20 30.0522M30 20.0522C30 14.5294 25.5228 10.0522 20 10.0522M20 10.0522C22.5013 12.7906 23.9228 16.3443 24 20.0522C23.9228 23.7602 22.5013 27.3139 20 30.0522M20 10.0522C17.4987 12.7906 16.0772 16.3443 16 20.0522C16.0772 23.7602 17.4987 27.3139 20 30.0522" stroke="#6086E9" stroke-width="2" stroke-linecap="round" stroke-linejoin="round"/>
</svg>
