<svg width="61" height="60" viewBox="0 0 61 60" fill="none" xmlns="http://www.w3.org/2000/svg">
<rect x="0.25" width="60" height="60" rx="12" fill="#FCEED8"/>
<path d="M20.25 25L28.4149 30.7154C29.0761 31.1783 29.4067 31.4097 29.7663 31.4993C30.0839 31.5785 30.4161 31.5785 30.7337 31.4993C31.0933 31.4097 31.4239 31.1783 32.0851 30.7154L40.25 25M25.05 38H35.45C37.1302 38 37.9702 38 38.612 37.673C39.1765 37.3854 39.6354 36.9265 39.923 36.362C40.25 35.7202 40.25 34.8802 40.25 33.2V26.8C40.25 25.1198 40.25 24.2798 39.923 23.638C39.6354 23.0735 39.1765 22.6146 38.612 22.327C37.9702 22 37.1302 22 35.45 22H25.05C23.3698 22 22.5298 22 21.888 22.327C21.3235 22.6146 20.8646 23.0735 20.577 23.638C20.25 24.2798 20.25 25.1198 20.25 26.8V33.2C20.25 34.8802 20.25 35.7202 20.577 36.362C20.8646 36.9265 21.3235 37.3854 21.888 37.673C22.5298 38 23.3698 38 25.05 38Z" stroke="#E48E61" stroke-width="2" stroke-linecap="round" stroke-linejoin="round"/>
</svg>
