<svg width="61" height="60" viewBox="0 0 61 60" fill="none" xmlns="http://www.w3.org/2000/svg">
<rect x="0.75" width="60" height="60" rx="12" fill="#D9F9E7"/>
<path d="M24.75 24H24.76M24.75 36H24.76M23.95 28H37.55C38.6701 28 39.2302 28 39.658 27.782C40.0343 27.5903 40.3403 27.2843 40.532 26.908C40.75 26.4802 40.75 25.9201 40.75 24.8V23.2C40.75 22.0799 40.75 21.5198 40.532 21.092C40.3403 20.7157 40.0343 20.4097 39.658 20.218C39.2302 20 38.6701 20 37.55 20H23.95C22.8299 20 22.2698 20 21.842 20.218C21.4657 20.4097 21.1597 20.7157 20.968 21.092C20.75 21.5198 20.75 22.0799 20.75 23.2V24.8C20.75 25.9201 20.75 26.4802 20.968 26.908C21.1597 27.2843 21.4657 27.5903 21.842 27.782C22.2698 28 22.8299 28 23.95 28ZM23.95 40H37.55C38.6701 40 39.2302 40 39.658 39.782C40.0343 39.5903 40.3403 39.2843 40.532 38.908C40.75 38.4802 40.75 37.9201 40.75 36.8V35.2C40.75 34.0799 40.75 33.5198 40.532 33.092C40.3403 32.7157 40.0343 32.4097 39.658 32.218C39.2302 32 38.6701 32 37.55 32H23.95C22.8299 32 22.2698 32 21.842 32.218C21.4657 32.4097 21.1597 32.7157 20.968 33.092C20.75 33.5198 20.75 34.0799 20.75 35.2V36.8C20.75 37.9201 20.75 38.4802 20.968 38.908C21.1597 39.2843 21.4657 39.5903 21.842 39.782C22.2698 40 22.8299 40 23.95 40Z" stroke="#43946D" stroke-width="2" stroke-linecap="round" stroke-linejoin="round"/>
</svg>
