<svg width="61" height="60" viewBox="0 0 61 60" fill="none" xmlns="http://www.w3.org/2000/svg">
<rect x="0.5" width="60" height="60" rx="12" fill="#ECEAFD"/>
<path d="M29.802 39.6148C30.0234 39.744 30.1341 39.8086 30.2903 39.8421C30.4116 39.8681 30.5884 39.8681 30.7097 39.8421C30.8659 39.8086 30.9766 39.744 31.198 39.6148C33.146 38.4783 38.5 34.9084 38.5 29.9999V26.1999C38.5 25.1261 38.5 24.5891 38.3345 24.2079C38.1662 23.8205 37.9986 23.6145 37.6536 23.3709C37.3141 23.1312 36.6486 22.9928 35.3177 22.716C33.8508 22.4109 32.7243 21.86 31.6944 21.0633C31.2005 20.6812 30.9536 20.4902 30.7603 20.4381C30.5564 20.3831 30.4436 20.3831 30.2397 20.4381C30.0464 20.4902 29.7995 20.6812 29.3056 21.0633C28.2757 21.86 27.1492 22.4109 25.6823 22.716C24.3514 22.9928 23.6859 23.1312 23.3464 23.3709C23.0014 23.6145 22.8338 23.8205 22.6655 24.2079C22.5 24.5891 22.5 25.1261 22.5 26.1999V29.9999C22.5 34.9084 27.854 38.4783 29.802 39.6148Z" stroke="#7443E4" stroke-width="2" stroke-linecap="round" stroke-linejoin="round"/>
</svg>
