<svg width="60" height="61" viewBox="0 0 60 61" fill="none" xmlns="http://www.w3.org/2000/svg">
<rect y="0.0522461" width="60" height="60" rx="12" fill="#DEEAFC"/>
<path d="M20 30.0522H40M20 30.0522C20 35.5751 24.4772 40.0522 30 40.0522M20 30.0522C20 24.5294 24.4772 20.0522 30 20.0522M40 30.0522C40 35.5751 35.5228 40.0522 30 40.0522M40 30.0522C40 24.5294 35.5228 20.0522 30 20.0522M30 20.0522C32.5013 22.7906 33.9228 26.3443 34 30.0522C33.9228 33.7602 32.5013 37.3139 30 40.0522M30 20.0522C27.4987 22.7906 26.0772 26.3443 26 30.0522C26.0772 33.7602 27.4987 37.3139 30 40.0522" stroke="#6086E9" stroke-width="2" stroke-linecap="round" stroke-linejoin="round"/>
</svg>
