<svg width="25" height="20" viewBox="0 0 25 20" fill="none" xmlns="http://www.w3.org/2000/svg">
<g clip-path="url(#clip0_534_35504)">
<path d="M21.7329 18.3875L18.9079 15.5625C20.4557 13.6696 21.2166 11.2543 21.0334 8.81607C20.8502 6.37786 19.7369 4.10333 17.9237 2.46295C16.1105 0.822579 13.7362 -0.0581351 11.2919 0.00298062C8.84757 0.0640964 6.52025 1.06237 4.79131 2.7913C3.06237 4.52024 2.0641 6.84757 2.00298 9.29189C1.94187 11.7362 2.82258 14.1105 4.46296 15.9237C6.10333 17.7369 8.37786 18.8502 10.8161 19.0334C13.2543 19.2166 15.6696 18.4557 17.5625 16.9079L20.3875 19.7329C20.567 19.9062 20.8073 20.0021 21.0568 20C21.3063 19.9978 21.5449 19.8977 21.7213 19.7213C21.8977 19.5449 21.9978 19.3063 22 19.0568C22.0021 18.8073 21.9062 18.567 21.7329 18.3875ZM11.5453 17.1572C10.0398 17.1572 8.56816 16.7108 7.31639 15.8744C6.06462 15.038 5.08898 13.8492 4.51285 12.4583C3.93673 11.0674 3.78599 9.53689 4.07969 8.06032C4.3734 6.58376 5.09836 5.22745 6.16291 4.1629C7.22745 3.09836 8.58376 2.3734 10.0603 2.07969C11.5369 1.78598 13.0674 1.93672 14.4583 2.51285C15.8492 3.08898 17.038 4.06461 17.8744 5.31638C18.7108 6.56815 19.1572 8.03984 19.1572 9.54533C19.155 11.5634 18.3523 13.4982 16.9253 14.9253C15.4982 16.3523 13.5634 17.155 11.5453 17.1572Z" fill="#9DB2CE"/>
</g>
<defs>
<clipPath id="clip0_534_35504">
<rect width="24.2697" height="20" fill="white"/>
</clipPath>
</defs>
</svg>
