<svg width="68" height="73" viewBox="0 0 68 73" fill="none" xmlns="http://www.w3.org/2000/svg">
<mask id="path-1-inside-1_534_34634" fill="white">
<path d="M0 0.0522461H68V72.0522H0V0.0522461Z"/>
</mask>
<path d="M68 71.0522H0V73.0522H68V71.0522Z" fill="#EAECF0" mask="url(#path-1-inside-1_534_34634)"/>
<path d="M34 36.8855C34.4603 36.8855 34.8334 36.5124 34.8334 36.0522C34.8334 35.5919 34.4603 35.2188 34 35.2188C33.5398 35.2188 33.1667 35.5919 33.1667 36.0522C33.1667 36.5124 33.5398 36.8855 34 36.8855Z" stroke="#98A2B3" stroke-width="1.66667" stroke-linecap="round" stroke-linejoin="round"/>
<path d="M34 31.0522C34.4603 31.0522 34.8334 30.6791 34.8334 30.2188C34.8334 29.7586 34.4603 29.3855 34 29.3855C33.5398 29.3855 33.1667 29.7586 33.1667 30.2188C33.1667 30.6791 33.5398 31.0522 34 31.0522Z" stroke="#98A2B3" stroke-width="1.66667" stroke-linecap="round" stroke-linejoin="round"/>
<path d="M34 42.7188C34.4603 42.7188 34.8334 42.3457 34.8334 41.8855C34.8334 41.4253 34.4603 41.0522 34 41.0522C33.5398 41.0522 33.1667 41.4253 33.1667 41.8855C33.1667 42.3457 33.5398 42.7188 34 42.7188Z" stroke="#98A2B3" stroke-width="1.66667" stroke-linecap="round" stroke-linejoin="round"/>
</svg>
