<svg width="24" height="24" viewBox="0 0 24 24" fill="none" xmlns="http://www.w3.org/2000/svg">
<path d="M19.604 13.957C19.866 13.957 20.1172 13.853 20.3025 13.6677C20.4877 13.4824 20.5918 13.2312 20.5918 12.9692V9.76051C20.6958 9.667 20.7947 9.56808 20.8882 9.46414C21.262 8.98841 21.5217 8.43317 21.647 7.84123C21.7724 7.24929 21.7602 6.63647 21.6113 6.05001L20.5612 1.86335C20.5079 1.64971 20.3848 1.45999 20.2114 1.32432C20.0379 1.18865 19.8242 1.11482 19.604 1.11454H3.79836C3.57814 1.11454 3.36424 1.18814 3.19063 1.32363C3.01702 1.45912 2.89366 1.64874 2.84015 1.86237L1.79303 6.04803C1.64427 6.63457 1.6322 7.24744 1.75774 7.83938C1.88328 8.43132 2.14309 8.98652 2.51712 9.46216C2.61037 9.56634 2.7093 9.66528 2.81348 9.75853V21.8601C2.81348 22.1221 2.91755 22.3734 3.10281 22.5587C3.28807 22.7439 3.53933 22.848 3.80133 22.848H14.8109C15.0729 22.848 15.3242 22.7439 15.5094 22.5587C15.6947 22.3734 15.7988 22.1221 15.7988 21.8601C15.7988 21.5981 15.6947 21.3468 15.5094 21.1616C15.3242 20.9763 15.0729 20.8722 14.8109 20.8722H4.78523V10.8946C5.48617 11.0553 6.21786 11.0194 6.89972 10.7909C7.58157 10.5624 8.18713 10.1501 8.6497 9.59948C8.67933 9.63406 8.70008 9.67456 8.7307 9.70815C9.10389 10.1128 9.55675 10.4359 10.0608 10.657C10.5649 10.8782 11.1092 10.9927 11.6597 10.9934H11.7417C12.2919 10.993 12.8361 10.8786 13.34 10.6576C13.8439 10.4366 14.2966 10.1137 14.6697 9.70914C14.7013 9.67555 14.721 9.63406 14.7507 9.60047C15.2136 10.1509 15.8194 10.563 16.5014 10.7913C17.1834 11.0196 17.9151 11.0554 18.6161 10.8946V12.9692C18.6161 13.2312 18.7202 13.4824 18.9055 13.6677C19.0907 13.853 19.342 13.957 19.604 13.957ZM7.98092 3.22268L7.69247 6.68028L7.65197 7.17422C7.60886 7.67524 7.3801 8.14207 7.01056 8.48311C6.64102 8.82415 6.15738 9.01479 5.65454 9.01762C5.3499 9.0177 5.04926 8.94834 4.77545 8.81481C4.50164 8.68128 4.26186 8.48709 4.07435 8.247C3.88684 8.00691 3.75651 7.72723 3.69329 7.42922C3.63006 7.13121 3.63559 6.82271 3.70946 6.52716L4.56889 3.09031H7.99475L7.98092 3.22268ZM13.2165 8.37055C13.0296 8.5755 12.8017 8.73897 12.5477 8.85043C12.2937 8.96188 12.0191 9.01883 11.7417 9.01762H11.6597C11.3828 9.01772 11.1089 8.96042 10.8553 8.84934C10.6017 8.73825 10.3738 8.5758 10.1861 8.37224C9.99843 8.16867 9.85497 7.9284 9.76481 7.66661C9.67464 7.40481 9.63972 7.12716 9.66225 6.85119L9.97045 3.09031H13.4279L13.7411 6.84427C13.7652 7.12121 13.7309 7.40013 13.6406 7.66302C13.5502 7.92591 13.4058 8.16694 13.2165 8.37055ZM17.7468 9.01762C17.2448 9.01494 16.7618 8.82517 16.3923 8.48537C16.0227 8.14558 15.7931 7.68019 15.7484 7.18015L15.4036 3.09031H18.8315L19.6909 6.52716C19.7648 6.82263 19.7703 7.13104 19.7071 7.42898C19.644 7.72692 19.5137 8.00654 19.3263 8.24661C19.1389 8.48668 18.8993 8.68089 18.6256 8.81449C18.3519 8.94808 18.0514 9.01755 17.7468 9.01762ZM20.7706 17.5796L23.4052 17.9639L21.2102 19.7747L21.8958 22.848L19.4538 21.0915L17.0119 22.848L17.6974 19.7747L15.5024 17.9639L18.137 17.5796L19.4538 14.9449L20.7706 17.5796Z" fill="white"/>
</svg>
