<svg width="60" height="60" viewBox="0 0 60 60" fill="none" xmlns="http://www.w3.org/2000/svg">
<rect width="60" height="60" rx="12" fill="#DEEAFC"/>
<path d="M20 30H40M20 30C20 35.5228 24.4772 40 30 40M20 30C20 24.4772 24.4772 20 30 20M40 30C40 35.5228 35.5228 40 30 40M40 30C40 24.4772 35.5228 20 30 20M30 20C32.5013 22.7384 33.9228 26.292 34 30C33.9228 33.708 32.5013 37.2616 30 40M30 20C27.4987 22.7384 26.0772 26.292 26 30C26.0772 33.708 27.4987 37.2616 30 40" stroke="#6086E9" stroke-width="2" stroke-linecap="round" stroke-linejoin="round"/>
</svg>
