<svg width="22" height="18" viewBox="0 0 22 18" fill="none" xmlns="http://www.w3.org/2000/svg">
<path d="M11.5002 1.5C11.5002 1.5 12.1372 1.59099 14.7732 4.22703C17.4093 6.86307 17.4093 11.1369 14.7732 13.773C13.8393 14.7069 12.6997 15.31 11.5002 15.5821M11.5002 1.5L16.0002 1.5M11.5002 1.5L11.5002 6M8.50024 16.4999C8.50024 16.4999 7.86331 16.4089 5.22727 13.7728C2.59123 11.1368 2.59123 6.86292 5.22727 4.22688C6.16123 3.29293 7.30078 2.68987 8.50024 2.41772M8.50024 16.4999L4.00024 16.5M8.50024 16.4999L8.50024 12" stroke="#9DB2CE" stroke-width="2" stroke-linecap="round" stroke-linejoin="round"/>
<path d="M1.00024 12L20.5002 6" stroke="#9DB2CE" stroke-width="2" stroke-linecap="round"/>
</svg>
