<svg width="40" height="40" viewBox="0 0 40 40" fill="none" xmlns="http://www.w3.org/2000/svg">
<rect width="40" height="40" rx="20" fill="#DEEAFC"/>
<path d="M10 20H30M10 20C10 25.5228 14.4772 30 20 30M10 20C10 14.4772 14.4772 10 20 10M30 20C30 25.5228 25.5228 30 20 30M30 20C30 14.4772 25.5228 10 20 10M20 10C22.5013 12.7384 23.9228 16.292 24 20C23.9228 23.708 22.5013 27.2616 20 30M20 10C17.4987 12.7384 16.0772 16.292 16 20C16.0772 23.708 17.4987 27.2616 20 30" stroke="#6086E9" stroke-width="2" stroke-linecap="round" stroke-linejoin="round"/>
</svg>
