<svg width="40" height="40" viewBox="0 0 40 40" fill="none" xmlns="http://www.w3.org/2000/svg">
<rect width="40" height="40" rx="20" fill="#D9F9E7"/>
<path d="M14 14H14.01M14 26H14.01M13.2 18H26.8C27.9201 18 28.4802 18 28.908 17.782C29.2843 17.5903 29.5903 17.2843 29.782 16.908C30 16.4802 30 15.9201 30 14.8V13.2C30 12.0799 30 11.5198 29.782 11.092C29.5903 10.7157 29.2843 10.4097 28.908 10.218C28.4802 10 27.9201 10 26.8 10H13.2C12.0799 10 11.5198 10 11.092 10.218C10.7157 10.4097 10.4097 10.7157 10.218 11.092C10 11.5198 10 12.0799 10 13.2V14.8C10 15.9201 10 16.4802 10.218 16.908C10.4097 17.2843 10.7157 17.5903 11.092 17.782C11.5198 18 12.0799 18 13.2 18ZM13.2 30H26.8C27.9201 30 28.4802 30 28.908 29.782C29.2843 29.5903 29.5903 29.2843 29.782 28.908C30 28.4802 30 27.9201 30 26.8V25.2C30 24.0799 30 23.5198 29.782 23.092C29.5903 22.7157 29.2843 22.4097 28.908 22.218C28.4802 22 27.9201 22 26.8 22H13.2C12.0799 22 11.5198 22 11.092 22.218C10.7157 22.4097 10.4097 22.7157 10.218 23.092C10 23.5198 10 24.0799 10 25.2V26.8C10 27.9201 10 28.4802 10.218 28.908C10.4097 29.2843 10.7157 29.5903 11.092 29.782C11.5198 30 12.0799 30 13.2 30Z" stroke="#43946D" stroke-width="2" stroke-linecap="round" stroke-linejoin="round"/>
</svg>
