<svg width="165" height="45" viewBox="0 0 165 45" fill="none" xmlns="http://www.w3.org/2000/svg">
<path d="M32.9894 30.4001C33.4184 30.6165 33.6719 30.833 33.8084 31.0494C33.9449 31.2659 34.0229 31.4429 34.0229 31.62C34.0229 31.8365 33.9839 32.0923 33.8474 32.4071C33.7109 32.7219 33.5939 33.017 33.4184 33.2728L32.9894 33.3122C32.6384 32.8793 32.1314 32.4858 31.4489 32.1906C30.7664 31.8955 30.0839 31.7184 29.3039 31.7184C29.0504 31.7184 28.7384 31.7578 28.4459 31.7971C28.1534 31.8758 27.8414 31.9742 27.5879 32.0923C27.3344 32.23 27.0809 32.4464 26.9054 32.6629C26.7299 32.9187 26.6519 33.2335 26.6519 33.6073C26.6519 34.2567 26.9444 34.7289 27.5099 35.0437C28.1144 35.3389 28.8359 35.5553 29.6939 35.7718C30.2984 35.9095 30.9029 36.1259 31.4879 36.3424C32.0534 36.5588 32.5604 36.854 33.0284 37.1688C33.4574 37.523 33.8084 37.9558 34.0619 38.4674C34.3154 38.979 34.4519 39.6283 34.4519 40.4154C34.4519 41.2024 34.2764 41.8518 33.9839 42.4027C33.6914 42.9733 33.2624 43.4456 32.7359 43.8391C32.2289 44.2326 31.6244 44.5278 30.9419 44.7049C30.2594 44.9213 29.5184 45 28.7969 45C28.0754 45 27.4319 44.9606 26.8664 44.8229C26.3009 44.6852 25.7939 44.5671 25.4039 44.39C24.8969 44.1736 24.5459 43.9571 24.3314 43.7407C24.1169 43.5243 24.0389 43.3078 24.0389 43.0914C24.0389 42.8356 24.1169 42.5208 24.2534 42.265C24.3899 41.9698 24.6044 41.655 24.8189 41.2615C24.9554 41.3992 25.1699 41.5173 25.4234 41.7337C25.6769 41.9108 25.9889 42.0879 26.3204 42.2453C26.6714 42.4224 27.1004 42.5404 27.5294 42.6782C27.9584 42.8159 28.4264 42.8553 28.8944 42.8553C29.2844 42.8553 29.6159 42.8159 29.9669 42.7175C30.3179 42.6388 30.6104 42.5404 30.9029 42.3634C31.1564 42.1863 31.4099 41.9698 31.5854 41.6747C31.7609 41.3795 31.8389 41.0254 31.8389 40.5925C31.8389 40.1596 31.7609 39.8054 31.5854 39.5103C31.4099 39.2545 31.1564 38.9987 30.8639 38.8216C30.5714 38.6445 30.2204 38.4674 29.8304 38.3887C29.4404 38.251 29.0504 38.1723 28.6799 38.0936C28.0754 37.9558 27.5294 37.7984 26.9639 37.6213C26.3984 37.4049 25.9304 37.1491 25.5014 36.8343C25.0724 36.4801 24.7214 36.1063 24.4679 35.575C24.2144 35.0634 24.0779 34.4928 24.0779 33.7648C24.0779 33.0761 24.2144 32.4661 24.5069 31.9545C24.7994 31.4429 25.1894 31.0101 25.6574 30.6559C26.1644 30.3017 26.7299 30.0459 27.3344 29.8688C27.9779 29.6917 28.6214 29.613 29.3039 29.613C30.0839 29.613 30.8054 29.6917 31.4489 29.8688C32.0924 30.0066 32.6189 30.1836 32.9894 30.4001ZM50.4809 37.1294C50.4809 38.1329 50.3444 39.1167 50.0909 40.0612C49.8374 41.0057 49.4474 41.8321 48.8819 42.5601C48.3164 43.2882 47.6339 43.8588 46.7759 44.2916C45.9179 44.7245 44.8454 44.941 43.6559 44.941C42.4079 44.941 41.3939 44.7245 40.5359 44.331C39.6779 43.8981 38.9954 43.3275 38.4884 42.6388C37.9814 41.9502 37.5524 41.1237 37.3379 40.1793C37.0844 39.2348 36.9479 38.2313 36.9479 37.1885C36.9479 36.1456 37.0844 35.1618 37.3769 34.2567C37.6694 33.3122 38.0984 32.5251 38.6639 31.8365C39.2294 31.1478 39.9509 30.5772 40.8089 30.2033C41.6669 29.7704 42.6419 29.5934 43.8119 29.5934C45.0209 29.5934 46.0349 29.8098 46.8929 30.2033C47.7509 30.6362 48.4334 31.1478 48.9404 31.8365C49.4474 32.5251 49.8764 33.3515 50.0909 34.2567C50.3444 35.1815 50.4809 36.1456 50.4809 37.1294ZM47.7314 37.1294C47.7314 36.4801 47.6924 35.8308 47.5559 35.2208C47.4194 34.5715 47.2634 34.0009 46.9514 33.4893C46.6394 32.9777 46.2689 32.5842 45.7424 32.2694C45.2354 31.9742 44.5334 31.7971 43.7339 31.7971C42.9539 31.7971 42.3104 31.9742 41.7644 32.2694C41.2574 32.5645 40.8284 32.9974 40.5164 33.4893C40.2239 34.0009 40.0094 34.5715 39.8339 35.2208C39.6974 35.8701 39.6194 36.4801 39.6194 37.1294C39.6194 37.7787 39.6584 38.4281 39.7949 39.0774C39.9314 39.7267 40.1459 40.3367 40.4384 40.8483C40.7309 41.3599 41.1599 41.7927 41.6864 42.1469C42.2129 42.5011 42.8369 42.6585 43.6559 42.6585C44.4749 42.6585 45.1574 42.4814 45.7034 42.1469C46.2494 41.8124 46.6394 41.3599 46.9514 40.8483C47.2439 40.3367 47.4194 39.7267 47.5559 39.0774C47.6924 38.4281 47.7314 37.7787 47.7314 37.1294ZM66.2369 42.7175C66.8024 42.7175 67.3094 42.6388 67.7774 42.5011C68.2454 42.324 68.6354 42.1469 68.9864 41.9305C69.3374 41.714 69.5909 41.4582 69.7664 41.2024C69.9419 40.9467 70.0199 40.7302 70.0199 40.5138V29.7508H70.5854C71.1509 29.7508 71.6579 29.8885 72.0479 30.1836C72.4379 30.4788 72.6524 31.0494 72.6524 31.8168V44.4884H70.0394V43.1504C69.6104 43.6227 69.0449 44.0555 68.3234 44.4097C67.6019 44.7639 66.6464 44.9803 65.4569 44.9803C64.2479 44.9803 63.3509 44.8032 62.6684 44.4097C62.0249 44.0162 61.5179 43.5439 61.2059 42.9733C60.9134 42.4027 60.6989 41.7534 60.6404 41.0647C60.6014 40.376 60.5624 39.7267 60.5624 39.0774V29.7311H61.1279C61.6934 29.7311 62.2004 29.8688 62.5904 30.164C62.9804 30.4591 63.1949 30.9904 63.1949 31.7578V39.0577C63.1949 39.8841 63.2339 40.5335 63.3704 41.0057C63.5069 41.4779 63.7214 41.8321 64.0529 42.0879C64.3454 42.3043 64.6964 42.4814 65.0474 42.5601C65.3399 42.6585 65.7689 42.7175 66.2369 42.7175ZM77.1179 42.6191C76.9814 42.2256 76.9034 41.7927 76.8644 41.3205C76.8254 40.8483 76.8254 40.4154 76.8254 39.9432V25.4613H77.3909C77.9564 25.4613 78.4244 25.599 78.8534 25.8942C79.2824 26.1893 79.4579 26.7206 79.4579 27.4486V29.9082H84.0404V32.1513H79.4579V40.1399C79.4579 41.8321 80.1404 42.6979 81.4664 42.6979C81.8174 42.6979 82.1099 42.6585 82.4024 42.5208C82.6949 42.383 82.9679 42.265 83.1824 42.1272C83.3969 41.9501 83.6114 41.8321 83.7479 41.6944C83.9234 41.5566 84.0014 41.4386 84.0404 41.3992C84.2939 41.6944 84.5084 42.0092 84.6839 42.3043C84.8594 42.5995 84.9374 42.8749 84.9374 43.1307C84.9374 43.3078 84.8594 43.5243 84.6839 43.7407C84.5084 43.9571 84.2549 44.1736 83.9039 44.3507C83.5529 44.5278 83.1824 44.7049 82.6949 44.8229C82.2269 44.9606 81.6614 45 81.1154 45C80.0429 45 79.1849 44.7836 78.5414 44.39C77.8589 43.9178 77.4299 43.3669 77.1179 42.6191ZM87.4139 29.7508H87.9794C88.5449 29.7508 89.0519 29.8885 89.4419 30.1836C89.8319 30.4788 90.0464 31.0494 90.0464 31.8168V41.714C90.0464 42.324 90.1244 42.7569 90.2999 42.9733C90.4754 43.2291 90.9044 43.3669 91.5089 43.3669V44.4884C91.3334 44.5278 91.0799 44.6262 90.7289 44.6655C90.4364 44.7049 90.0854 44.7049 89.7929 44.7049C89.1884 44.7049 88.7204 44.6261 88.4279 44.4097C88.1354 44.2326 87.8624 43.9768 87.7064 43.6817C87.5309 43.3865 87.4529 43.0324 87.4529 42.6388C87.4139 42.2453 87.4139 41.8518 87.4139 41.5173V29.7508ZM106.992 37.1294C106.992 38.1329 106.855 39.1167 106.602 40.0612C106.348 41.0057 105.958 41.8321 105.393 42.5601C104.827 43.2882 104.145 43.8588 103.287 44.2916C102.429 44.7245 101.356 44.941 100.167 44.941C98.9189 44.941 97.9049 44.7245 97.0469 44.331C96.1889 43.8981 95.5064 43.3275 94.9994 42.6388C94.4339 41.9502 94.0634 41.1237 93.8489 40.1793C93.5954 39.2348 93.4589 38.2313 93.4589 37.1885C93.4589 36.1456 93.5954 35.1618 93.8879 34.2567C94.1804 33.3122 94.6094 32.5251 95.1749 31.8365C95.7404 31.1478 96.4619 30.5772 97.3199 30.2033C98.1779 29.7704 99.1529 29.5934 100.323 29.5934C101.532 29.5934 102.546 29.8098 103.404 30.2033C104.262 30.6362 104.944 31.1478 105.451 31.8365C105.958 32.5251 106.387 33.3515 106.602 34.2567C106.855 35.1815 106.992 36.1456 106.992 37.1294ZM104.242 37.1294C104.242 36.4801 104.203 35.8308 104.067 35.2208C103.93 34.5715 103.774 34.0009 103.462 33.4893C103.17 32.9777 102.78 32.5842 102.253 32.2694C101.746 31.9742 101.044 31.7971 100.245 31.7971C99.4649 31.7971 98.8214 31.9742 98.2754 32.2694C97.7684 32.5645 97.3394 32.9974 97.0274 33.4893C96.7349 34.0009 96.5204 34.5715 96.3449 35.2208C96.2084 35.8701 96.1304 36.4801 96.1304 37.1294C96.1304 37.7787 96.1694 38.4281 96.3059 39.0774C96.4424 39.7267 96.6569 40.3367 96.9494 40.8483C97.2419 41.3599 97.6709 41.7927 98.1974 42.1469C98.7044 42.5011 99.3479 42.6585 100.167 42.6585C100.986 42.6585 101.668 42.4814 102.214 42.1469C102.78 41.7927 103.15 41.3599 103.462 40.8483C103.755 40.3367 103.93 39.7267 104.067 39.0774C104.164 38.4281 104.242 37.7787 104.242 37.1294ZM110.326 29.8295C110.794 29.8295 111.223 29.9672 111.613 30.1836C112.003 30.4001 112.218 30.833 112.296 31.4036C112.764 30.9313 113.407 30.4985 114.226 30.1443C115.045 29.7508 115.981 29.5737 117.093 29.5737C118.516 29.5737 119.53 29.8688 120.31 30.5181C121.032 31.1281 121.519 31.8955 121.773 32.8596C121.851 33.2925 121.948 33.7254 121.948 34.237C121.948 34.7486 121.987 35.2405 121.987 35.7127V44.4884H119.374V35.7914V34.6699C119.374 34.3157 119.296 33.9812 119.199 33.6664C119.062 33.1548 118.77 32.7219 118.302 32.4071C117.834 32.1119 117.19 31.9742 116.293 31.9742C115.143 31.9742 114.187 32.1906 113.505 32.6629C112.822 33.1351 112.471 33.6073 112.471 34.178V44.4687H109.858V29.8098H110.326V29.8295ZM133.59 30.4001C134.019 30.6165 134.272 30.833 134.409 31.0494C134.545 31.2659 134.623 31.4429 134.623 31.62C134.623 31.8365 134.584 32.0923 134.448 32.4071C134.311 32.7022 134.194 33.017 134.019 33.2728L133.59 33.3122C133.239 32.8793 132.732 32.4858 132.049 32.1906C131.367 31.8955 130.684 31.7184 129.904 31.7184C129.651 31.7184 129.339 31.7578 129.046 31.7971C128.754 31.8365 128.442 31.9348 128.149 32.0529C127.896 32.1906 127.642 32.4071 127.467 32.6235C127.291 32.8793 127.213 33.1941 127.213 33.568C127.213 34.2173 127.506 34.6896 128.071 35.0044C128.676 35.2995 129.397 35.516 130.255 35.7324C130.86 35.8701 131.464 36.0866 132.049 36.303C132.615 36.5195 133.122 36.8146 133.59 37.1294C134.019 37.4836 134.37 37.9165 134.623 38.4281C134.877 38.9397 135.013 39.589 135.013 40.376C135.013 41.1631 134.838 41.8124 134.545 42.3634C134.253 42.934 133.824 43.4062 133.297 43.7997C132.79 44.1933 132.186 44.4884 131.503 44.6655C130.821 44.8819 130.08 44.9606 129.358 44.9606C128.637 44.9606 127.993 44.9213 127.428 44.7836C126.862 44.6458 126.355 44.5278 125.965 44.3507C125.458 44.1342 125.107 43.9178 124.893 43.7014C124.678 43.4849 124.6 43.2685 124.6 43.052C124.6 42.7962 124.678 42.4814 124.815 42.2256C124.951 41.9305 125.166 41.6157 125.38 41.2221C125.517 41.3599 125.731 41.4779 125.985 41.6944C126.238 41.8714 126.55 42.0485 126.882 42.2059C127.233 42.383 127.662 42.5011 128.091 42.6388C128.52 42.7766 128.988 42.8159 129.456 42.8159C129.846 42.8159 130.177 42.7766 130.528 42.6782C130.879 42.5995 131.172 42.5011 131.464 42.324C131.718 42.1469 131.971 41.9305 132.147 41.6353C132.322 41.3402 132.4 40.986 132.4 40.5531C132.4 40.1202 132.322 39.7661 132.147 39.4709C131.971 39.2151 131.718 38.9593 131.425 38.7822C131.133 38.6052 130.782 38.4281 130.392 38.3494C130.002 38.2116 129.612 38.1329 129.241 38.0542C128.637 37.9165 128.091 37.7591 127.525 37.582C126.96 37.3655 126.492 37.1098 126.063 36.7949C125.634 36.4408 125.283 36.0669 125.029 35.5356C124.776 35.024 124.639 34.4534 124.639 33.7254C124.639 33.0367 124.776 32.4268 125.068 31.9152C125.361 31.4036 125.751 30.9707 126.219 30.6165C126.726 30.2623 127.291 30.0066 127.896 29.8295C128.539 29.6524 129.183 29.5737 129.865 29.5737C130.645 29.5737 131.367 29.6524 132.01 29.8295C132.693 30.0066 133.2 30.1836 133.59 30.4001Z" fill="white"/>
<path d="M60.6795 18.85C60.6405 18.8894 60.543 19.0271 60.387 19.1452C60.2115 19.2829 60.036 19.4403 59.8215 19.5781C59.607 19.7552 59.3535 19.8732 59.0415 19.9716C58.749 20.1093 58.437 20.1487 58.1055 20.1487C56.7795 20.1487 56.097 19.2829 56.097 17.5907V9.64146H60.6795V7.39835H56.136V4.9388C56.136 4.15174 55.9215 3.64015 55.5315 3.38436C55.1025 3.08921 54.6345 2.95148 54.069 2.95148H53.5035V17.4727C53.5035 17.9449 53.5035 18.3778 53.5425 18.85C53.5815 19.3223 53.679 19.7552 53.796 20.1487C54.0495 20.8767 54.5175 21.4473 55.161 21.8802C55.8045 22.3131 56.6625 22.4902 57.735 22.4902C58.3005 22.4902 58.8465 22.4508 59.3145 22.3131C59.7825 22.1754 60.2115 22.0573 60.5235 21.8409C60.8745 21.6638 61.128 21.4473 61.3035 21.2309C61.479 21.0144 61.557 20.798 61.557 20.6209C61.557 20.3651 61.479 20.0503 61.3035 19.7945C61.1475 19.4994 60.933 19.2042 60.6795 18.85Z" fill="#619340"/>
<path d="M53.484 22.6869V41.4386C53.484 41.8321 53.484 42.1666 53.523 42.5601C53.562 42.9536 53.6595 43.2881 53.7765 43.603C53.952 43.8981 54.1665 44.1736 54.498 44.331C54.7905 44.5081 55.278 44.5868 55.863 44.5868C56.1555 44.5868 56.4675 44.5868 56.799 44.5474C57.0915 44.5081 57.3645 44.4687 57.579 44.3703V43.2488C57.189 43.2488 56.9355 43.2094 56.721 43.1111C56.5065 43.0323 56.37 42.934 56.292 42.7569C56.214 42.6191 56.1555 42.4027 56.1165 42.1863C56.1165 41.9698 56.0775 41.714 56.0775 41.3992V24.4578C56.0775 24.2807 56.0775 24.1036 56.0385 23.9462C55.356 23.8085 54.7515 23.5527 54.2055 23.2182C53.952 23.1198 53.7375 22.9034 53.484 22.6869Z" fill="white"/>
<path d="M24.507 7.29996C24.975 7.29996 25.404 7.43769 25.794 7.65413C26.184 7.90993 26.3985 8.30346 26.4765 8.87407C26.9445 8.40184 27.588 7.96896 28.407 7.61478C29.226 7.22125 30.162 7.04416 31.2735 7.04416C32.697 7.04416 33.711 7.33931 34.491 7.98863C35.2125 8.5986 35.7 9.36598 35.9535 10.3301C36.0315 10.763 36.129 11.1959 36.129 11.7075C36.129 12.2191 36.168 12.711 36.168 13.1832V21.9983H33.555V13.2619V12.1404C33.555 11.7862 33.477 11.4517 33.3795 11.1369C33.243 10.6253 32.9505 10.1924 32.4825 9.87757C32.0145 9.58242 31.371 9.44469 30.474 9.44469C29.3235 9.44469 28.368 9.66113 27.6855 10.1334C27.003 10.6056 26.652 11.0778 26.652 11.6484V21.9786H24V7.31963H24.351C24.39 7.29996 24.468 7.29996 24.507 7.29996ZM45.684 20.188C46.2885 20.188 46.7955 20.1487 47.2245 20.0109C47.6535 19.8732 48.0435 19.7551 48.375 19.5387C48.6675 19.3616 48.9795 19.1452 49.194 18.9681C49.4085 18.7516 49.623 18.5746 49.7595 18.3975C49.974 18.6926 50.1885 19.0074 50.364 19.3419C50.5395 19.6961 50.6175 19.9519 50.6175 20.129C50.6175 20.3061 50.5785 20.4832 50.442 20.6406C50.364 20.8177 50.1885 20.9948 49.935 21.2112C49.467 21.5654 48.8625 21.8605 48.141 22.1163C47.4195 22.3721 46.5225 22.4705 45.489 22.4705C44.4945 22.4705 43.5975 22.3328 42.7395 22.0376C41.8815 21.7818 41.16 21.3096 40.5165 20.6996C39.873 20.0896 39.366 19.2632 38.976 18.2794C38.586 17.2759 38.4105 16.0363 38.4105 14.5999C38.4105 13.3013 38.586 12.1797 38.976 11.2352C39.366 10.2908 39.834 9.50372 40.4775 8.89375C41.082 8.28378 41.8035 7.81155 42.5835 7.55575C43.3635 7.29996 44.163 7.12287 45.021 7.12287C46.0545 7.12287 46.9515 7.29996 47.712 7.63446C48.492 7.98863 49.077 8.46087 49.545 9.07084C50.013 9.68081 50.364 10.3301 50.5785 11.0975C50.793 11.8846 50.9295 12.6913 50.9295 13.5177V14.3835C50.9295 14.6786 50.8905 14.9934 50.8515 15.2492H41.16C41.199 16.7643 41.628 17.9646 42.369 18.8894C43.0125 19.7551 44.1435 20.188 45.684 20.188ZM48.297 13.2226C48.297 12.6519 48.258 12.1404 48.1215 11.6681C47.985 11.1959 47.829 10.763 47.556 10.4088C47.3025 10.0547 46.9515 9.75951 46.4835 9.54307C46.0545 9.32663 45.489 9.24792 44.865 9.24792C43.7925 9.24792 42.9345 9.6021 42.252 10.2908C41.5695 10.9795 41.1795 11.9829 41.1015 13.2226H48.297ZM98.451 14.6589C98.451 15.6624 98.3145 16.6463 98.061 17.5907C97.8075 18.5352 97.4175 19.3616 96.852 20.0896C96.2865 20.8177 95.604 21.3883 94.746 21.8212C93.888 22.254 92.8155 22.4705 91.626 22.4705C90.378 22.4705 89.364 22.254 88.506 21.8605C87.648 21.4276 86.9655 20.857 86.4585 20.1683C85.9515 19.4797 85.5225 18.6533 85.308 17.7088C85.0545 16.7643 84.918 15.7608 84.918 14.718C84.918 13.6751 85.0545 12.6913 85.347 11.7862C85.6395 10.8417 86.0685 10.0547 86.634 9.36598C87.1995 8.67731 87.921 8.10669 88.779 7.73284C89.637 7.29996 90.612 7.12287 91.782 7.12287C92.991 7.12287 94.005 7.33931 94.863 7.73284C95.721 8.16572 96.4035 8.67731 96.9105 9.36598C97.4175 10.0547 97.8465 10.8811 98.061 11.7862C98.334 12.6716 98.451 13.6161 98.451 14.6589ZM95.721 14.6589C95.721 14.0096 95.682 13.3603 95.5455 12.7503C95.409 12.101 95.253 11.5304 94.941 11.0188C94.6485 10.5072 94.2585 10.1137 93.732 9.79886C93.225 9.50372 92.523 9.32663 91.7235 9.32663C90.9435 9.32663 90.3 9.50372 89.754 9.79886C89.247 10.094 88.818 10.5269 88.506 11.0188C88.2135 11.5304 87.999 12.101 87.8235 12.7503C87.687 13.3997 87.609 14.0096 87.609 14.6589C87.609 15.3083 87.648 15.9576 87.7845 16.6069C87.921 17.2562 88.1355 17.8662 88.428 18.3778C88.7205 18.8894 89.1495 19.3223 89.676 19.6764C90.183 20.0306 90.8265 20.188 91.6455 20.188C92.4645 20.188 93.147 20.0109 93.693 19.6764C94.2 19.3223 94.629 18.8894 94.941 18.3778C95.2335 17.8662 95.409 17.2562 95.5455 16.6069C95.682 15.9576 95.721 15.3083 95.721 14.6589ZM101.668 7.29996C102.136 7.29996 102.565 7.43769 102.955 7.65413C103.345 7.90993 103.56 8.30346 103.638 8.87407C103.93 8.44119 104.359 8.00831 104.925 7.65413C105.49 7.26061 106.173 7.08352 106.933 7.08352C107.148 7.08352 107.401 7.12287 107.655 7.12287C107.909 7.16222 108.162 7.2606 108.377 7.33931C108.591 7.41802 108.805 7.55575 108.942 7.73284C109.078 7.90993 109.157 8.12637 109.157 8.38216C109.157 8.73634 109.078 9.07084 108.903 9.46437C108.727 9.85789 108.552 10.153 108.396 10.4088C108.142 10.153 107.83 9.97595 107.538 9.83822C107.245 9.70048 106.855 9.62178 106.387 9.62178C106.036 9.62178 105.705 9.66113 105.393 9.79886C105.1 9.9366 104.788 10.0547 104.535 10.2711C104.281 10.4875 104.106 10.704 103.93 10.9204C103.794 11.1762 103.716 11.432 103.716 11.7075V21.9983H101.122V7.33931H101.512C101.59 7.29996 101.629 7.29996 101.668 7.29996ZM111.048 21.9983V0H111.613C112.179 0 112.686 0.137734 113.076 0.432881C113.466 0.728027 113.68 1.29864 113.68 2.06603V21.9983C113.661 21.9983 111.048 21.9983 111.048 21.9983ZM114.343 14.3441V13.3406L119.608 8.02799C120.174 7.5164 120.759 7.20158 121.363 7.20158C121.578 7.20158 121.792 7.24093 121.968 7.28028C122.143 7.35899 122.319 7.41802 122.475 7.49672C122.65 7.57543 122.767 7.67381 122.943 7.79187L117.035 13.6751L123.84 21.8802C123.333 22.0573 122.845 22.136 122.299 22.136C121.87 22.136 121.48 22.0573 121.09 21.8802C120.7 21.7031 120.31 21.408 120.018 21.0144C120.057 21.0538 114.343 14.3441 114.343 14.3441ZM60.6795 18.85C60.6405 18.8894 60.543 19.0271 60.387 19.1452C60.2115 19.2829 60.036 19.4403 59.8215 19.5781C59.607 19.7551 59.3535 19.8732 59.0415 19.9716C58.749 20.1093 58.437 20.1487 58.1055 20.1487C56.7795 20.1487 56.097 19.2829 56.097 17.5907V9.64145H60.6795V7.39834H56.136V4.93879C56.136 4.15173 55.9215 3.64014 55.5315 3.38435C55.1025 3.0892 54.6345 2.95147 54.069 2.95147H53.5035V17.4727C53.5035 17.9449 53.5035 18.3778 53.5425 18.85C53.5815 19.3223 53.679 19.7551 53.796 20.1487C54.0495 20.8767 54.5175 21.4473 55.161 21.8802C55.8045 22.3131 56.6625 22.4902 57.735 22.4902C58.3005 22.4902 58.8465 22.4508 59.3145 22.3131C59.7825 22.1753 60.2115 22.0573 60.5235 21.8408C60.8745 21.6638 61.128 21.4473 61.3035 21.2309C61.479 21.0144 61.557 20.798 61.557 20.6209C61.557 20.3651 61.479 20.0503 61.3035 19.7945C61.1475 19.4993 60.933 19.2042 60.6795 18.85ZM78.834 22.136H76.221L73.3155 14.5802L70.137 22.136H67.7775L62.766 7.5164C62.9805 7.47704 63.195 7.37866 63.4095 7.33931C63.624 7.29996 63.8385 7.29996 64.092 7.29996C65.0865 7.29996 65.7105 7.81154 66.0225 8.89375L69.201 19.1452L72.165 11.8452L70.5855 7.47704C70.9755 7.33931 71.4045 7.29996 71.8335 7.29996C72.7695 7.29996 73.374 7.77219 73.764 8.77569L77.4495 19.1845L79.9845 9.32663C80.121 8.75601 80.3355 8.28378 80.628 7.89025C80.9205 7.49672 81.3495 7.28028 81.954 7.28028C82.383 7.28028 82.773 7.35899 83.202 7.53607L78.834 22.136Z" fill="#C7F4C2"/>
<path d="M141 32.0332C141 32.3874 140.961 32.6825 140.825 32.9777C140.688 33.2728 140.571 33.5483 140.357 33.7647C140.142 33.9812 139.889 34.1583 139.635 34.3354C139.343 34.4731 139.031 34.5518 138.641 34.5518C138.251 34.5518 137.919 34.4731 137.646 34.3354C137.354 34.1976 137.081 34.0402 136.925 33.7647C136.71 33.5483 136.574 33.2532 136.457 32.9777C136.379 32.6825 136.281 32.3677 136.281 32.0332C136.281 31.679 136.32 31.3839 136.457 31.0888C136.593 30.7936 136.71 30.5181 136.925 30.3017C137.139 30.0853 137.393 29.9082 137.646 29.7901C137.939 29.6524 138.251 29.5737 138.641 29.5737C138.992 29.5737 139.323 29.6524 139.635 29.7901C139.928 29.9278 140.201 30.0853 140.357 30.3017C140.571 30.5181 140.747 30.7739 140.825 31.0888C140.961 31.3839 141 31.7381 141 32.0332ZM140.61 32.0332C140.61 31.7774 140.571 31.5216 140.474 31.2462C140.396 30.9904 140.259 30.7739 140.084 30.5968C139.908 30.3804 139.694 30.2427 139.479 30.1246C139.226 29.9869 138.972 29.9475 138.66 29.9475C138.348 29.9475 138.095 29.9869 137.841 30.1246C137.588 30.2623 137.412 30.3804 137.237 30.5968C137.061 30.7739 136.944 31.0297 136.847 31.2462C136.769 31.502 136.71 31.7578 136.71 32.0332C136.71 32.289 136.749 32.6038 136.847 32.8203C136.925 33.0761 137.061 33.2925 137.237 33.509C137.412 33.7254 137.627 33.8631 137.841 33.9812C138.095 34.1189 138.348 34.1583 138.66 34.1583C138.972 34.1583 139.226 34.1189 139.479 33.9812C139.733 33.8435 139.908 33.7254 140.084 33.509C140.259 33.2925 140.376 33.0761 140.474 32.8203C140.571 32.6038 140.61 32.3284 140.61 32.0332ZM139.889 33.3712C139.752 33.4106 139.635 33.4499 139.538 33.4499C139.46 33.4499 139.362 33.4499 139.323 33.4106C139.245 33.3712 139.187 33.3319 139.148 33.2335L138.582 32.3284H138.329V33.4106H137.724V30.5181C137.861 30.5181 137.978 30.5181 138.153 30.4788H138.582C138.972 30.4788 139.265 30.5575 139.479 30.7346C139.655 30.9117 139.733 31.1281 139.733 31.3839C139.733 31.5216 139.733 31.6003 139.694 31.679L139.557 31.9348C139.518 32.0135 139.421 32.0726 139.382 32.1119C139.304 32.1513 139.245 32.1906 139.167 32.2497L139.889 33.3712ZM139.109 31.4233C139.109 31.1281 138.933 30.9904 138.543 30.9904H138.251V31.8955H138.543C138.719 31.8955 138.836 31.8561 138.933 31.7578C139.07 31.679 139.109 31.561 139.109 31.4233Z" fill="#7D7D7D"/>
</svg>
