<svg width="60" height="60" viewBox="0 0 60 60" fill="none" xmlns="http://www.w3.org/2000/svg">
<rect width="60" height="60" rx="12" fill="#ECEAFD"/>
<path d="M29.302 39.6149C29.5234 39.744 29.6341 39.8086 29.7903 39.8421C29.9116 39.8681 30.0884 39.8681 30.2097 39.8421C30.3659 39.8086 30.4766 39.744 30.698 39.6149C32.646 38.4784 38 34.9084 38 30V26.2C38 25.1261 38 24.5892 37.8345 24.208C37.6662 23.8206 37.4986 23.6145 37.1536 23.3709C36.8141 23.1312 36.1486 22.9928 34.8177 22.716C33.3508 22.4109 32.2243 21.86 31.1944 21.0633C30.7005 20.6813 30.4536 20.4902 30.2603 20.4381C30.0564 20.3832 29.9436 20.3832 29.7397 20.4381C29.5464 20.4902 29.2995 20.6813 28.8056 21.0633C27.7757 21.86 26.6492 22.4109 25.1823 22.716C23.8514 22.9928 23.1859 23.1312 22.8464 23.3709C22.5014 23.6145 22.3338 23.8206 22.1655 24.208C22 24.5892 22 25.1261 22 26.2V30C22 34.9084 27.354 38.4784 29.302 39.6149Z" stroke="#7443E4" stroke-width="2" stroke-linecap="round" stroke-linejoin="round"/>
</svg>
