<svg width="60" height="60" viewBox="0 0 60 60" fill="none" xmlns="http://www.w3.org/2000/svg">
<rect width="60" height="60" rx="12" fill="#FCEED8"/>
<path d="M20 25L28.1649 30.7154C28.8261 31.1783 29.1567 31.4097 29.5163 31.4993C29.8339 31.5785 30.1661 31.5785 30.4837 31.4993C30.8433 31.4097 31.1739 31.1783 31.8351 30.7154L40 25M24.8 38H35.2C36.8802 38 37.7202 38 38.362 37.673C38.9265 37.3854 39.3854 36.9265 39.673 36.362C40 35.7202 40 34.8802 40 33.2V26.8C40 25.1198 40 24.2798 39.673 23.638C39.3854 23.0735 38.9265 22.6146 38.362 22.327C37.7202 22 36.8802 22 35.2 22H24.8C23.1198 22 22.2798 22 21.638 22.327C21.0735 22.6146 20.6146 23.0735 20.327 23.638C20 24.2798 20 25.1198 20 26.8V33.2C20 34.8802 20 35.7202 20.327 36.362C20.6146 36.9265 21.0735 37.3854 21.638 37.673C22.2798 38 23.1198 38 24.8 38Z" stroke="#E48E61" stroke-width="2" stroke-linecap="round" stroke-linejoin="round"/>
</svg>
