<svg width="68" height="72" viewBox="0 0 68 72" fill="none" xmlns="http://www.w3.org/2000/svg">
<mask id="path-1-inside-1_0_419" fill="white">
<path d="M0 0H68V72H0V0Z"/>
</mask>
<path d="M68 71H0V73H68V71Z" fill="#EAECF0" mask="url(#path-1-inside-1_0_419)"/>
<path d="M34 36.8333C34.4602 36.8333 34.8333 36.4602 34.8333 36C34.8333 35.5397 34.4602 35.1666 34 35.1666C33.5397 35.1666 33.1666 35.5397 33.1666 36C33.1666 36.4602 33.5397 36.8333 34 36.8333Z" stroke="#98A2B3" stroke-width="1.66667" stroke-linecap="round" stroke-linejoin="round"/>
<path d="M34 31C34.4602 31 34.8333 30.6269 34.8333 30.1666C34.8333 29.7064 34.4602 29.3333 34 29.3333C33.5397 29.3333 33.1666 29.7064 33.1666 30.1666C33.1666 30.6269 33.5397 31 34 31Z" stroke="#98A2B3" stroke-width="1.66667" stroke-linecap="round" stroke-linejoin="round"/>
<path d="M34 42.6666C34.4602 42.6666 34.8333 42.2935 34.8333 41.8333C34.8333 41.3731 34.4602 41 34 41C33.5397 41 33.1666 41.3731 33.1666 41.8333C33.1666 42.2935 33.5397 42.6666 34 42.6666Z" stroke="#98A2B3" stroke-width="1.66667" stroke-linecap="round" stroke-linejoin="round"/>
</svg>
